<?xml version="1.0"?>
<svg width="512" height="512" xmlns="http://www.w3.org/2000/svg" xmlns:svg="http://www.w3.org/2000/svg">

 <g class="layer">
  <title>Layer 1</title>
  <g id="svg_1">
   <polygon fill="#49618C" id="svg_2" points="61.342,226.39 61.342,454.002 30.906,454.002 30.906,222.741  "/>
   <polygon fill="#49618C" id="svg_3" points="481.09,222.751 481.09,454.002 450.654,454.002 450.654,226.39  "/>
  </g>
  <path d="m504.399,57.998l0,161.589c-69.095,9.834 -138.635,15.542 -208.237,17.134c-96.378,2.19 -192.887,-3.518 -288.555,-17.134l0,-161.589c23.522,3.346 47.094,6.215 70.697,8.608l0.01,0c141.768,14.366 284.834,11.497 426.085,-8.608z" fill="#EDD154" id="svg_4"/>
  <g id="svg_5">
   <path d="m30.906,222.741l30.436,3.65l0,34.978c-10.149,-1.125 -20.298,-2.342 -30.436,-3.65c0,0 0,-34.978 0,-34.978z" fill="#3B4773" id="svg_6"/>
   <path d="m481.09,222.751l0,34.968c-10.139,1.308 -20.287,2.525 -30.436,3.65l0,-34.979l30.436,-3.639z" fill="#3B4773" id="svg_7"/>
  </g>
  <path d="m296.162,237.722c-96.378,2.19 -192.887,-3.518 -288.555,-17.134l0,-161.59c23.522,3.346 47.094,6.215 70.697,8.608c0,0 63.113,159.612 217.727,170.106c0.04,0 0.091,0.01 0.131,0.01z" fill="#D6B31D" id="svg_8"/>
  <path d="m509.379,52.256c-1.665,-1.445 -3.875,-2.098 -6.055,-1.785c-140.41,19.983 -283.151,22.868 -424.255,8.571c-4.176,-0.427 -7.908,2.621 -8.332,6.799c-0.424,4.178 2.621,7.908 6.799,8.332c139.426,14.127 280.423,11.624 419.256,-7.433l0,146.232c-159.823,22.136 -321.76,22.136 -481.584,0l0,-146.232c11.705,1.606 23.504,3.105 35.186,4.472c4.181,0.494 7.949,-2.498 8.435,-6.669c0.488,-4.171 -2.498,-7.948 -6.669,-8.435c-14.449,-1.689 -29.08,-3.585 -43.485,-5.636c-2.186,-0.311 -4.391,0.341 -6.055,1.785c-1.664,1.443 -2.62,3.539 -2.62,5.742l0,161.584c0,3.786 2.785,6.995 6.532,7.528c5.587,0.795 11.177,1.558 16.769,2.299l0,224.592c0,4.199 3.405,7.604 7.604,7.604l30.436,0c4.199,0 7.604,-3.405 7.604,-7.604l0,-219.136c62.188,6.609 124.621,9.915 187.054,9.915c62.433,0 124.864,-3.305 187.05,-9.915l0,67.591c0,4.199 3.404,7.604 7.604,7.604c4.2,0 7.604,-3.405 7.604,-7.604l0,-69.275c5.078,-0.584 10.154,-1.191 15.229,-1.82l0,215.036l-15.229,0l0,-118.594c0,-4.199 -3.404,-7.604 -7.604,-7.604c-4.2,0 -7.604,3.405 -7.604,7.604l0,126.198c0,4.199 3.404,7.604 7.604,7.604l30.437,0c4.2,0 7.604,-3.405 7.604,-7.604l0,-224.59c5.593,-0.741 11.184,-1.505 16.772,-2.3c3.747,-0.533 6.532,-3.742 6.532,-7.528l0,-161.585c0.002,-2.203 -0.954,-4.299 -2.619,-5.743zm-455.641,394.142l-15.229,0l0,-215.037c5.074,0.629 10.15,1.236 15.228,1.82l0,213.217l0.001,0z" id="svg_14"/>
  <g id="svg_15"/>
  <g id="svg_16"/>
  <g id="svg_17"/>
  <g id="svg_18"/>
  <g id="svg_19"/>
  <g id="svg_20"/>
  <g id="svg_21"/>
  <g id="svg_22"/>
  <g id="svg_23"/>
  <g id="svg_24"/>
  <g id="svg_25"/>
  <g id="svg_26"/>
  <g id="svg_27"/>
  <g id="svg_28"/>
  <g id="svg_29"/>
  <text fill="#000000" font-family="Courier" font-size="60" font-weight="bold" id="svg_30" stroke-width="0" text-anchor="middle" x="265.5" xml:space="preserve" y="168.5">Iter 0</text>
 </g>
</svg>